<?xml version="1.0" encoding="UTF-8"?>
<svg xmlns="http://www.w3.org/2000/svg" xmlns:xlink="http://www.w3.org/1999/xlink" width="20px" height="20px" viewBox="0 0 20 20" version="1.1">
<g id="surface1">
<path style=" stroke:none;fill-rule:nonzero;fill:rgb(0%,0%,0%);fill-opacity:1;" d="M 0 10 L 0 20 L 20 20 L 20 0 L 0 0 Z M 10.226562 4.332031 C 10.367188 4.382812 10.523438 4.5 10.828125 4.773438 C 11.238281 5.144531 11.53125 5.4375 11.578125 5.53125 C 11.640625 5.65625 11.636719 5.789062 11.570312 5.882812 C 11.519531 5.953125 11.1875 6.269531 11.082031 6.34375 C 11.046875 6.367188 10.976562 6.398438 10.921875 6.40625 C 10.773438 6.445312 10.671875 6.398438 10.429688 6.191406 C 10.316406 6.09375 10.1875 5.996094 10.136719 5.96875 C 10.015625 5.910156 9.878906 5.914062 9.773438 5.980469 C 9.734375 6.007812 9.5 6.226562 9.25 6.464844 C 9.007812 6.703125 8.75 6.945312 8.675781 7.007812 C 8.441406 7.203125 8.207031 7.277344 7.890625 7.261719 C 7.742188 7.253906 7.699219 7.242188 7.570312 7.179688 C 7.328125 7.0625 7.148438 6.828125 7.09375 6.566406 C 7.023438 6.234375 7.140625 5.882812 7.390625 5.679688 C 7.539062 5.558594 7.695312 5.507812 7.964844 5.492188 C 8.273438 5.46875 8.273438 5.46875 8.925781 4.863281 C 9.390625 4.4375 9.484375 4.363281 9.691406 4.304688 C 9.828125 4.265625 10.09375 4.28125 10.226562 4.332031 Z M 5.84375 5.621094 C 6.101562 5.757812 6.148438 6.09375 5.945312 6.300781 C 5.777344 6.46875 5.507812 6.46875 5.335938 6.304688 C 5.25 6.21875 5.214844 6.132812 5.214844 6 C 5.21875 5.664062 5.546875 5.464844 5.84375 5.621094 Z M 14.414062 5.585938 C 14.503906 5.609375 14.621094 5.710938 14.664062 5.796875 C 14.757812 5.976562 14.726562 6.164062 14.59375 6.296875 C 14.265625 6.609375 13.75 6.308594 13.875 5.875 C 13.941406 5.648438 14.179688 5.519531 14.414062 5.585938 Z M 12.546875 6.351562 C 12.671875 6.488281 12.820312 6.867188 12.871094 7.171875 C 12.921875 7.476562 12.867188 7.886719 12.742188 8.132812 C 12.527344 8.554688 12.195312 8.828125 11.742188 8.953125 C 11.648438 8.984375 10.835938 9.152344 9.929688 9.335938 C 7.589844 9.804688 7.539062 9.820312 7.359375 9.882812 C 6.949219 10.03125 6.664062 10.28125 6.304688 10.808594 C 6.117188 11.078125 6.058594 11.121094 5.953125 11.070312 C 5.8125 11.003906 5.585938 10.566406 5.507812 10.203125 C 5.476562 10.054688 5.480469 9.699219 5.519531 9.539062 C 5.648438 9.023438 5.996094 8.675781 6.542969 8.527344 C 6.679688 8.492188 6.871094 8.453125 8.183594 8.183594 C 11.171875 7.574219 10.921875 7.632812 11.179688 7.507812 C 11.539062 7.34375 11.835938 7.046875 12.132812 6.554688 C 12.265625 6.335938 12.3125 6.289062 12.40625 6.289062 C 12.46875 6.289062 12.5 6.300781 12.546875 6.351562 Z M 14.03125 8.6875 C 14.15625 8.808594 14.328125 9.125 14.40625 9.386719 C 14.644531 10.195312 14.234375 10.976562 13.457031 11.1875 C 13.3125 11.226562 13.015625 11.289062 10.332031 11.816406 C 9.617188 11.957031 8.96875 12.09375 8.886719 12.121094 C 8.484375 12.257812 8.117188 12.570312 7.753906 13.105469 C 7.578125 13.363281 7.539062 13.398438 7.453125 13.398438 C 7.367188 13.398438 7.304688 13.328125 7.21875 13.140625 C 6.964844 12.59375 6.953125 12.035156 7.191406 11.546875 C 7.273438 11.367188 7.3125 11.320312 7.457031 11.171875 C 7.632812 11 7.765625 10.90625 7.96875 10.828125 C 8.171875 10.742188 8.101562 10.757812 11.035156 10.164062 C 11.640625 10.042969 12.21875 9.921875 12.3125 9.898438 C 12.835938 9.773438 13.175781 9.546875 13.480469 9.109375 C 13.539062 9.023438 13.625 8.890625 13.671875 8.8125 C 13.714844 8.734375 13.773438 8.65625 13.804688 8.640625 C 13.875 8.601562 13.960938 8.621094 14.03125 8.6875 Z M 12.257812 12.566406 C 12.503906 12.632812 12.710938 12.804688 12.828125 13.039062 C 12.890625 13.171875 12.898438 13.210938 12.90625 13.367188 C 12.921875 13.683594 12.84375 13.882812 12.617188 14.085938 C 12.484375 14.210938 12.34375 14.273438 12.117188 14.300781 C 11.882812 14.328125 11.800781 14.355469 11.699219 14.429688 C 11.648438 14.46875 11.390625 14.703125 11.132812 14.945312 C 10.609375 15.429688 10.5 15.519531 10.371094 15.585938 C 10.101562 15.726562 9.773438 15.714844 9.515625 15.5625 C 9.398438 15.492188 8.632812 14.808594 8.4375 14.601562 C 8.195312 14.339844 8.132812 14.09375 8.25 13.859375 C 8.320312 13.726562 8.675781 13.367188 8.796875 13.3125 C 9.015625 13.210938 9.164062 13.257812 9.460938 13.546875 C 9.71875 13.789062 9.863281 13.886719 9.96875 13.886719 C 10.140625 13.886719 10.160156 13.875 10.695312 13.359375 C 10.972656 13.085938 11.242188 12.828125 11.296875 12.789062 C 11.414062 12.695312 11.585938 12.605469 11.726562 12.570312 C 11.855469 12.53125 12.132812 12.53125 12.257812 12.566406 Z M 12.257812 12.566406 "/>
</g>
</svg>
